<svg xmlns="http://www.w3.org/2000/svg" xmlns:xlink="http://www.w3.org/1999/xlink" width="170" zoomAndPan="magnify" viewBox="0 0 127.5 32.999998" height="44" preserveAspectRatio="xMidYMid meet" version="1.2"><defs><clipPath id="7f74be5c6d"><path d="M 0 0.0625 L 127 0.0625 L 127 32.933594 L 0 32.933594 Z M 0 0.0625 "/></clipPath><clipPath id="9bfa1828d6"><path d="M 2.160156 1.4375 L 43 1.4375 L 43 31.320312 L 2.160156 31.320312 Z M 2.160156 1.4375 "/></clipPath></defs><g id="34d4c8fcf1"><g clip-rule="nonzero" clip-path="url(#7f74be5c6d)"><path style=" stroke:none;fill-rule:nonzero;fill:#ffffff;fill-opacity:1;" d="M 0 0.0625 L 127 0.0625 L 127 32.933594 L 0 32.933594 Z M 0 0.0625 "/><path style=" stroke:none;fill-rule:nonzero;fill:#ffffff;fill-opacity:1;" d="M 0 0.0625 L 127 0.0625 L 127 32.933594 L 0 32.933594 Z M 0 0.0625 "/></g><g clip-rule="nonzero" clip-path="url(#9bfa1828d6)"><path style=" stroke:none;fill-rule:nonzero;fill:#ef3139;fill-opacity:1;" d="M 18.554688 11.078125 C 19.046875 11.28125 19.535156 11.425781 19.96875 11.664062 C 20.933594 12.191406 21.042969 13.179688 20.222656 13.914062 C 19.941406 14.164062 19.554688 14.296875 19.769531 14.796875 C 20.023438 15.398438 19.691406 15.832031 19.324219 16.265625 C 18.730469 16.972656 18.472656 17.800781 18.550781 18.722656 C 18.632812 19.675781 19.058594 20.167969 20.117188 20.011719 C 21.867188 19.75 22.917969 20.65625 22.886719 22.460938 C 22.867188 23.605469 22.863281 24.714844 23.261719 25.804688 C 23.390625 26.15625 23.390625 26.570312 23.898438 26.601562 C 24.324219 26.628906 24.730469 26.441406 24.824219 26.078125 C 25.226562 24.472656 26.890625 23.371094 26.617188 21.5 C 26.566406 21.152344 26.765625 20.816406 27.035156 20.621094 C 28.121094 19.84375 27.722656 19.308594 26.796875 18.800781 C 26.167969 18.457031 25.902344 17.832031 25.625 17.210938 C 25.082031 16 24.359375 15.023438 22.820312 15.148438 C 22.621094 15.164062 22.414062 15.066406 22.207031 15.03125 C 21.710938 14.941406 21.441406 14.660156 21.574219 14.148438 C 21.695312 13.695312 22.136719 13.523438 22.472656 13.710938 C 24.089844 14.609375 26.285156 14.664062 27.050781 16.859375 C 27.347656 17.71875 28.019531 17.941406 28.859375 17.441406 C 28.804688 17.332031 28.78125 17.253906 28.734375 17.195312 C 28.414062 16.808594 27.324219 16.839844 27.875 16.015625 C 28.328125 15.328125 28.996094 15.804688 29.53125 16.15625 C 30.671875 16.914062 32.054688 17.441406 32.050781 19.511719 C 32.824219 18.332031 32.894531 16.976562 34.1875 17.085938 C 35.648438 17.210938 35.726562 18.648438 36.269531 19.875 C 36.582031 19.277344 36.964844 18.890625 36.664062 18.3125 C 36.1875 17.390625 36.644531 16.9375 37.476562 16.785156 C 38.695312 16.558594 38.5625 16.03125 37.933594 15.273438 C 37.023438 14.171875 37.03125 14.164062 38.425781 13.847656 C 39.050781 13.703125 39.152344 12.945312 38.65625 12.234375 C 38.300781 11.734375 37.113281 11.40625 38.054688 10.601562 C 38.832031 9.933594 39.71875 10.328125 40.410156 11.007812 C 40.527344 11.125 40.609375 11.28125 40.683594 11.382812 C 40.855469 11.328125 40.972656 11.316406 40.976562 11.285156 C 41.050781 10.824219 41.828125 10.648438 41.609375 10.1875 C 41.390625 9.71875 40.769531 10.011719 40.332031 9.933594 C 39.46875 9.773438 38.601562 9.625 37.730469 9.492188 C 36.882812 9.367188 36.082031 9.066406 35.175781 9.550781 C 34.496094 9.914062 33.71875 9.371094 33.015625 9.140625 C 32.304688 8.910156 32 9.117188 31.898438 9.816406 C 31.808594 10.4375 31.722656 11.0625 31.546875 11.664062 C 31.425781 12.089844 31.058594 12.378906 30.589844 12.335938 C 30.078125 12.292969 30.132812 11.84375 30.085938 11.472656 C 29.789062 9.222656 29.773438 9.207031 27.757812 10.152344 C 27.101562 10.457031 26.464844 10.738281 25.722656 10.652344 C 25.019531 10.574219 24.40625 10.746094 23.878906 11.242188 C 23.703125 11.410156 23.457031 11.515625 23.226562 11.613281 C 22.726562 11.816406 22.238281 11.800781 21.8125 11.417969 C 21.566406 11.199219 21.511719 10.902344 21.613281 10.613281 C 21.808594 10.0625 22.277344 9.878906 22.808594 9.859375 C 23.695312 9.824219 24.578125 10.125 25.367188 9.269531 C 26.023438 8.558594 26.21875 8.164062 25.382812 7.484375 C 24.996094 7.171875 24.125 6.8125 24.53125 6.191406 C 24.992188 5.480469 25.707031 6.082031 26.1875 6.402344 C 27.101562 7.011719 27.695312 6.3125 28.34375 5.957031 C 28.804688 5.699219 28.453125 5.414062 28.183594 5.191406 C 27.324219 4.460938 26.457031 3.730469 25.617188 2.980469 C 25.324219 2.714844 24.777344 2.464844 25.035156 1.992188 C 25.300781 1.507812 25.878906 1.4375 26.386719 1.640625 C 27.511719 2.089844 28.667969 2.496094 29.71875 3.089844 C 31.058594 3.839844 32.25 4.203125 33.660156 3.167969 C 34.242188 2.742188 35.359375 2.011719 35.855469 2.949219 C 36.351562 3.886719 35.21875 4.363281 34.457031 4.640625 C 33.101562 5.136719 32.503906 6.09375 32.339844 7.460938 C 32.265625 8.078125 32.425781 8.40625 33.046875 8.546875 C 33.972656 8.75 34.839844 9.144531 35.847656 8.695312 C 36.5 8.40625 37.25 8.765625 37.945312 8.902344 C 38.976562 9.101562 40 9.285156 41.050781 9.339844 C 42.359375 9.402344 42.613281 9.941406 41.957031 11.078125 C 41.878906 11.214844 41.765625 11.386719 41.792969 11.511719 C 41.886719 11.90625 41.96875 12.289062 41.480469 12.449219 C 40.933594 12.628906 40.640625 12.253906 40.359375 11.859375 C 39.925781 11.25 39.394531 10.804688 38.445312 11.085938 C 39.230469 11.863281 39.816406 12.691406 39.539062 13.824219 C 39.386719 14.460938 38.820312 14.433594 38.347656 14.542969 C 38.265625 14.898438 38.546875 15.074219 38.6875 15.308594 C 39.332031 16.414062 39.183594 16.910156 37.984375 17.261719 C 37.367188 17.441406 36.910156 17.5625 37.34375 18.324219 C 37.621094 18.804688 37.257812 19.195312 37.125 19.625 C 36.933594 20.226562 36.753906 20.847656 37.328125 21.363281 C 37.792969 21.777344 38.210938 22.246094 38.902344 21.613281 C 39.179688 21.359375 39.5 21.6875 39.703125 21.992188 C 40.648438 23.441406 40.550781 24.914062 39.417969 26.207031 C 39.171875 26.492188 38.949219 26.800781 38.691406 27.074219 C 38.355469 27.441406 38.023438 27.894531 37.425781 27.65625 C 36.84375 27.425781 37.214844 26.953125 37.179688 26.570312 C 37.09375 25.53125 36.425781 25.535156 35.636719 25.753906 C 35.003906 25.933594 34.308594 26.726562 33.714844 25.917969 C 33.117188 25.09375 33.773438 24.234375 34.039062 23.429688 C 34.195312 22.949219 34.738281 22.886719 35.15625 22.699219 C 36.28125 22.191406 36.40625 21.679688 35.84375 20.578125 C 35.546875 19.988281 35.390625 19.320312 35.171875 18.691406 C 34.996094 18.1875 34.71875 17.75 34.128906 17.742188 C 33.566406 17.734375 33.375 18.195312 33.230469 18.644531 C 33.058594 19.167969 32.933594 19.816406 32.253906 19.777344 C 31.566406 19.738281 31.378906 19.097656 31.199219 18.523438 C 30.808594 17.265625 30.53125 17.183594 29.515625 17.914062 C 28.808594 18.417969 28.007812 18.300781 27.183594 18.117188 C 27.257812 18.554688 27.664062 18.648438 27.914062 18.867188 C 28.558594 19.421875 28.65625 19.996094 27.964844 20.539062 C 27.363281 21.007812 27.183594 21.574219 27.261719 22.300781 C 27.316406 22.820312 27.125 23.304688 26.789062 23.699219 C 26.257812 24.316406 25.949219 25.035156 25.679688 25.796875 C 25.382812 26.632812 24.859375 27.304688 23.867188 27.273438 C 22.859375 27.246094 22.824219 26.375 22.578125 25.671875 C 22.21875 24.652344 22.242188 23.617188 22.253906 22.566406 C 22.273438 20.886719 21.652344 20.355469 20.015625 20.679688 C 19.09375 20.859375 18.558594 20.484375 18.230469 19.699219 C 17.835938 18.761719 17.910156 17.824219 18.277344 16.890625 C 18.609375 16.046875 19.5 15.398438 19.105469 14.285156 C 19 13.992188 19.425781 13.726562 19.703125 13.539062 C 20.5625 12.960938 20.214844 12.4375 19.539062 12.148438 C 17.894531 11.445312 16.207031 10.835938 14.53125 10.199219 C 14.390625 10.148438 14.214844 10.191406 13.941406 10.191406 C 14.222656 10.601562 14.46875 10.886719 14.632812 11.214844 C 15.050781 12.039062 14.824219 12.460938 13.953125 12.972656 C 12.632812 13.746094 10.914062 14.148438 10.40625 15.96875 C 10.199219 16.71875 9.554688 16.625 8.941406 16.441406 C 8.671875 16.363281 8.3125 16.257812 8.199219 16.640625 C 8.105469 16.957031 8.472656 17.003906 8.652344 17.15625 C 8.910156 17.371094 9.234375 17.53125 9.425781 17.789062 C 10.058594 18.644531 10.699219 19.222656 11.910156 18.769531 C 12.570312 18.519531 13.210938 18.996094 13.691406 19.492188 C 14.515625 20.355469 15.441406 21.011719 16.601562 21.390625 C 17.582031 21.710938 17.933594 22.386719 17.195312 23.320312 C 17.09375 23.453125 16.9375 23.609375 16.945312 23.746094 C 17.046875 25.96875 15.164062 26.964844 14.050781 28.421875 C 13.691406 28.894531 13.667969 29.3125 13.820312 29.820312 C 13.953125 30.257812 14.171875 30.824219 13.632812 31.050781 C 12.988281 31.324219 12.796875 30.648438 12.582031 30.242188 C 11.855469 28.871094 11.632812 27.375 11.714844 25.851562 C 11.765625 24.914062 11.53125 24.277344 10.652344 23.804688 C 9.480469 23.175781 9.230469 22.054688 9.621094 20.871094 C 9.949219 19.886719 9.644531 19.445312 8.71875 19.101562 C 7.660156 18.710938 6.691406 18.113281 5.796875 17.398438 C 4.75 16.558594 4.449219 15.527344 4.765625 14.269531 C 4.828125 14.023438 4.875 13.777344 4.933594 13.535156 C 5.511719 11.21875 5.511719 11.214844 3.230469 11.449219 C 2.835938 11.492188 2.355469 11.515625 2.277344 11.078125 C 2.160156 10.421875 2.703125 9.957031 3.078125 9.492188 C 3.242188 9.296875 3.601562 9.226562 3.882812 9.171875 C 5.660156 8.832031 7.460938 9.261719 9.242188 8.988281 C 9.484375 8.953125 9.78125 9.066406 9.722656 9.40625 C 9.675781 9.675781 9.421875 9.617188 9.214844 9.613281 C 7.839844 9.59375 6.484375 9.902344 5.09375 9.691406 C 4.421875 9.59375 3.566406 9.574219 3.300781 10.589844 C 6.078125 10.472656 6.289062 10.753906 5.5625 13.511719 C 4.945312 15.863281 5.261719 16.554688 7.5625 17.851562 C 8.03125 18.117188 8.523438 18.339844 9.21875 18.691406 C 8.929688 17.976562 8.5 17.769531 8.09375 17.535156 C 7.648438 17.277344 7.363281 16.910156 7.5625 16.398438 C 7.757812 15.875 8.207031 15.542969 8.757812 15.746094 C 9.605469 16.0625 9.90625 15.703125 10.03125 14.945312 C 10.054688 14.789062 10.132812 14.5625 10.25 14.507812 C 11.453125 13.953125 12.347656 12.941406 13.5 12.324219 C 13.738281 12.195312 14.167969 12.328125 14.179688 11.925781 C 14.195312 11.425781 13.847656 11.082031 13.457031 10.816406 C 13.179688 10.628906 12.902344 10.652344 12.660156 10.894531 C 12.628906 10.921875 12.59375 10.949219 12.570312 10.984375 C 12.21875 11.492188 11.84375 11.953125 11.136719 11.578125 C 10.808594 11.40625 10.667969 11.101562 10.714844 10.734375 C 10.804688 9.988281 11.347656 9.691406 11.984375 9.519531 C 13.261719 9.179688 14.484375 9.441406 15.667969 9.933594 C 16.160156 10.140625 16.578125 10.398438 16.832031 9.632812 C 16.972656 9.203125 17.421875 9.03125 17.820312 8.925781 C 18.433594 8.769531 19.167969 8.625 19.546875 9.253906 C 19.972656 9.964844 19.347656 10.386719 18.839844 10.777344 C 18.738281 10.847656 18.667969 10.953125 18.554688 11.078125 Z M 12.824219 29.136719 C 13.757812 27.972656 14.570312 26.699219 15.644531 25.707031 C 16.652344 24.773438 16.035156 23.382812 16.871094 22.449219 C 17.027344 22.273438 16.585938 21.988281 16.296875 21.925781 C 15.132812 21.664062 14.320312 20.886719 13.496094 20.097656 C 12.582031 19.214844 11.15625 19.09375 10.558594 19.800781 C 9.761719 20.742188 10 22.746094 11.078125 23.347656 C 12.054688 23.894531 12.398438 24.648438 12.34375 25.722656 C 12.285156 26.894531 12.34375 28.066406 12.824219 29.136719 Z M 38.042969 26.847656 C 38.480469 26.363281 38.871094 25.882812 39.308594 25.457031 C 40.015625 24.769531 39.714844 24 39.558594 23.230469 C 39.402344 22.449219 38.894531 22.585938 38.347656 22.710938 C 38.214844 22.738281 38.007812 22.632812 37.894531 22.523438 C 37.21875 21.902344 36.683594 21.992188 36.175781 22.753906 C 36.027344 22.976562 35.730469 23.1875 35.464844 23.238281 C 34.582031 23.40625 34.375 24.039062 34.269531 24.78125 C 34.234375 25.023438 34.0625 25.289062 34.289062 25.488281 C 34.523438 25.6875 34.75 25.46875 34.972656 25.378906 C 36.765625 24.648438 37.394531 24.933594 38.042969 26.847656 Z M 29.105469 7.492188 C 28.664062 7.929688 27.625 7.765625 27.636719 8.820312 C 27.640625 9.050781 27.601562 9.464844 27.929688 9.332031 C 28.574219 9.074219 29.425781 9.003906 29.578125 8.097656 C 29.625 7.839844 29.644531 7.484375 29.105469 7.492188 Z M 19.140625 9.488281 C 18.375 9.503906 17.777344 9.339844 17.398438 9.949219 C 17.273438 10.148438 17.375 10.371094 17.617188 10.410156 C 18.25 10.511719 18.703125 10.25 19.140625 9.488281 Z M 19.140625 9.488281 "/></g><g style="fill:#ef3139;fill-opacity:1;"><g transform="translate(47.779814, 22.850095)"><path style="stroke:none" d="M 6.984375 0.1875 C 5.804688 0.1875 4.769531 -0.0546875 3.875 -0.546875 C 2.976562 -1.035156 2.273438 -1.769531 1.765625 -2.75 C 1.253906 -3.738281 1 -4.953125 1 -6.390625 C 1 -7.835938 1.253906 -9.050781 1.765625 -10.03125 C 2.273438 -11.007812 2.976562 -11.742188 3.875 -12.234375 C 4.769531 -12.734375 5.804688 -12.984375 6.984375 -12.984375 C 8.222656 -12.984375 9.269531 -12.738281 10.125 -12.25 C 10.988281 -11.769531 11.601562 -11.039062 11.96875 -10.0625 L 10.125 -8.921875 L 9.90625 -8.9375 C 9.632812 -9.601562 9.257812 -10.078125 8.78125 -10.359375 C 8.3125 -10.648438 7.710938 -10.796875 6.984375 -10.796875 C 5.929688 -10.796875 5.101562 -10.441406 4.5 -9.734375 C 3.90625 -9.035156 3.609375 -7.921875 3.609375 -6.390625 C 3.609375 -4.867188 3.90625 -3.753906 4.5 -3.046875 C 5.101562 -2.347656 5.929688 -2 6.984375 -2 C 8.648438 -2 9.671875 -2.804688 10.046875 -4.421875 L 10.265625 -4.421875 L 12.125 -3.453125 C 11.78125 -2.242188 11.179688 -1.332031 10.328125 -0.71875 C 9.484375 -0.113281 8.367188 0.1875 6.984375 0.1875 Z M 6.984375 0.1875 "/></g><g transform="translate(60.334096, 22.850095)"><path style="stroke:none" d="M 2.59375 -10.8125 C 2.15625 -10.8125 1.800781 -10.941406 1.53125 -11.203125 C 1.257812 -11.472656 1.125 -11.816406 1.125 -12.234375 C 1.125 -12.648438 1.257812 -12.988281 1.53125 -13.25 C 1.800781 -13.519531 2.15625 -13.65625 2.59375 -13.65625 C 2.882812 -13.65625 3.144531 -13.59375 3.375 -13.46875 C 3.601562 -13.34375 3.78125 -13.171875 3.90625 -12.953125 C 4.03125 -12.742188 4.09375 -12.503906 4.09375 -12.234375 C 4.09375 -11.960938 4.03125 -11.71875 3.90625 -11.5 C 3.78125 -11.28125 3.601562 -11.109375 3.375 -10.984375 C 3.144531 -10.867188 2.882812 -10.8125 2.59375 -10.8125 Z M 1.390625 0 L 1.390625 -9.65625 L 3.8125 -9.65625 L 3.8125 0 Z M 1.390625 0 "/></g><g transform="translate(65.534406, 22.850095)"><path style="stroke:none" d="M 2.140625 4.09375 C 1.722656 4.09375 1.34375 4.0625 1 4 C 0.664062 3.9375 0.394531 3.851562 0.1875 3.75 L 0.578125 1.78125 L 0.734375 1.734375 C 0.878906 1.804688 1.054688 1.863281 1.265625 1.90625 C 1.484375 1.957031 1.707031 1.984375 1.9375 1.984375 C 2.332031 1.984375 2.660156 1.929688 2.921875 1.828125 C 3.179688 1.734375 3.398438 1.566406 3.578125 1.328125 C 3.753906 1.085938 3.914062 0.757812 4.0625 0.34375 L 0.203125 -9.65625 L 2.75 -9.65625 L 5.140625 -2.9375 L 5.359375 -2.9375 L 7.6875 -9.65625 L 10.15625 -9.65625 L 6.28125 0.609375 C 5.96875 1.429688 5.625 2.09375 5.25 2.59375 C 4.882812 3.101562 4.445312 3.476562 3.9375 3.71875 C 3.4375 3.96875 2.835938 4.09375 2.140625 4.09375 Z M 2.140625 4.09375 "/></g></g><g style="fill:#ef3139;fill-opacity:1;"><g transform="translate(75.716157, 22.850095)"><path style="stroke:none" d="M 3.765625 0.1875 C 3.140625 0.1875 2.597656 0.0703125 2.140625 -0.15625 C 1.691406 -0.382812 1.34375 -0.71875 1.09375 -1.15625 C 0.851562 -1.59375 0.734375 -2.125 0.734375 -2.75 C 0.734375 -3.320312 0.851562 -3.800781 1.09375 -4.1875 C 1.34375 -4.570312 1.722656 -4.890625 2.234375 -5.140625 C 2.753906 -5.390625 3.425781 -5.582031 4.25 -5.71875 C 4.832031 -5.8125 5.269531 -5.910156 5.5625 -6.015625 C 5.863281 -6.128906 6.066406 -6.253906 6.171875 -6.390625 C 6.273438 -6.535156 6.328125 -6.71875 6.328125 -6.9375 C 6.328125 -7.238281 6.21875 -7.472656 6 -7.640625 C 5.789062 -7.804688 5.4375 -7.890625 4.9375 -7.890625 C 4.394531 -7.890625 3.878906 -7.769531 3.390625 -7.53125 C 2.910156 -7.289062 2.492188 -6.972656 2.140625 -6.578125 L 1.96875 -6.578125 L 0.953125 -8.109375 C 1.441406 -8.648438 2.039062 -9.070312 2.75 -9.375 C 3.457031 -9.6875 4.226562 -9.84375 5.0625 -9.84375 C 6.332031 -9.84375 7.253906 -9.566406 7.828125 -9.015625 C 8.398438 -8.472656 8.6875 -7.707031 8.6875 -6.71875 L 8.6875 -2.515625 C 8.6875 -2.085938 8.878906 -1.875 9.265625 -1.875 C 9.410156 -1.875 9.550781 -1.898438 9.6875 -1.953125 L 9.8125 -1.921875 L 9.984375 -0.234375 C 9.847656 -0.140625 9.660156 -0.0664062 9.421875 -0.015625 C 9.179688 0.0351562 8.921875 0.0625 8.640625 0.0625 C 8.054688 0.0625 7.601562 -0.046875 7.28125 -0.265625 C 6.957031 -0.484375 6.726562 -0.828125 6.59375 -1.296875 L 6.40625 -1.328125 C 5.9375 -0.316406 5.054688 0.1875 3.765625 0.1875 Z M 4.53125 -1.625 C 5.09375 -1.625 5.539062 -1.8125 5.875 -2.1875 C 6.207031 -2.5625 6.375 -3.085938 6.375 -3.765625 L 6.375 -4.75 L 6.21875 -4.78125 C 6.070312 -4.664062 5.878906 -4.566406 5.640625 -4.484375 C 5.398438 -4.398438 5.0625 -4.320312 4.625 -4.25 C 4.09375 -4.164062 3.710938 -4.015625 3.484375 -3.796875 C 3.253906 -3.585938 3.140625 -3.285156 3.140625 -2.890625 C 3.140625 -2.484375 3.257812 -2.171875 3.5 -1.953125 C 3.75 -1.734375 4.09375 -1.625 4.53125 -1.625 Z M 4.53125 -1.625 "/></g></g><g style="fill:#000000;fill-opacity:1;"><g transform="translate(85.903744, 22.850095)"><path style="stroke:none" d="M 10.25 -12.796875 L 10.25 -10.671875 L 6.5625 -10.671875 L 6.5625 0 L 4.046875 0 L 4.046875 -10.671875 L 0.34375 -10.671875 L 0.34375 -12.796875 Z M 10.25 -12.796875 "/></g></g><g style="fill:#000000;fill-opacity:1;"><g transform="translate(95.639004, 22.850095)"><path style="stroke:none" d="M 1.390625 0 L 1.390625 -9.65625 L 3.75 -9.65625 L 3.75 -8.21875 L 3.921875 -8.1875 C 4.160156 -8.71875 4.46875 -9.109375 4.84375 -9.359375 C 5.226562 -9.609375 5.691406 -9.734375 6.234375 -9.734375 C 6.773438 -9.734375 7.191406 -9.640625 7.484375 -9.453125 L 7.078125 -7.375 L 6.890625 -7.328125 C 6.734375 -7.390625 6.582031 -7.4375 6.4375 -7.46875 C 6.289062 -7.5 6.109375 -7.515625 5.890625 -7.515625 C 5.222656 -7.515625 4.707031 -7.273438 4.34375 -6.796875 C 3.988281 -6.328125 3.8125 -5.566406 3.8125 -4.515625 L 3.8125 0 Z M 1.390625 0 "/></g><g transform="translate(103.211845, 22.850095)"><path style="stroke:none" d="M 2.59375 -10.8125 C 2.15625 -10.8125 1.800781 -10.941406 1.53125 -11.203125 C 1.257812 -11.472656 1.125 -11.816406 1.125 -12.234375 C 1.125 -12.648438 1.257812 -12.988281 1.53125 -13.25 C 1.800781 -13.519531 2.15625 -13.65625 2.59375 -13.65625 C 2.882812 -13.65625 3.144531 -13.59375 3.375 -13.46875 C 3.601562 -13.34375 3.78125 -13.171875 3.90625 -12.953125 C 4.03125 -12.742188 4.09375 -12.503906 4.09375 -12.234375 C 4.09375 -11.960938 4.03125 -11.71875 3.90625 -11.5 C 3.78125 -11.28125 3.601562 -11.109375 3.375 -10.984375 C 3.144531 -10.867188 2.882812 -10.8125 2.59375 -10.8125 Z M 1.390625 0 L 1.390625 -9.65625 L 3.8125 -9.65625 L 3.8125 0 Z M 1.390625 0 "/></g><g transform="translate(108.412155, 22.850095)"><path style="stroke:none" d="M 1.390625 3.90625 L 1.390625 -9.65625 L 3.8125 -9.65625 L 3.8125 -8.390625 L 4 -8.359375 C 4.28125 -8.847656 4.660156 -9.21875 5.140625 -9.46875 C 5.617188 -9.71875 6.179688 -9.84375 6.828125 -9.84375 C 7.597656 -9.84375 8.273438 -9.65625 8.859375 -9.28125 C 9.441406 -8.914062 9.894531 -8.359375 10.21875 -7.609375 C 10.539062 -6.859375 10.703125 -5.929688 10.703125 -4.828125 C 10.703125 -3.722656 10.53125 -2.796875 10.1875 -2.046875 C 9.84375 -1.296875 9.367188 -0.734375 8.765625 -0.359375 C 8.160156 0.00390625 7.460938 0.1875 6.671875 0.1875 C 6.066406 0.1875 5.546875 0.0859375 5.109375 -0.109375 C 4.671875 -0.316406 4.300781 -0.632812 4 -1.0625 L 3.8125 -1.03125 L 3.8125 3.90625 Z M 6 -1.875 C 6.71875 -1.875 7.265625 -2.109375 7.640625 -2.578125 C 8.015625 -3.054688 8.203125 -3.804688 8.203125 -4.828125 C 8.203125 -5.847656 8.015625 -6.59375 7.640625 -7.0625 C 7.265625 -7.539062 6.71875 -7.78125 6 -7.78125 C 5.320312 -7.78125 4.785156 -7.535156 4.390625 -7.046875 C 3.992188 -6.554688 3.796875 -5.816406 3.796875 -4.828125 C 3.796875 -3.835938 3.992188 -3.097656 4.390625 -2.609375 C 4.785156 -2.117188 5.320312 -1.875 6 -1.875 Z M 6 -1.875 "/></g></g></g></svg>