<svg xmlns="http://www.w3.org/2000/svg" xmlns:xlink="http://www.w3.org/1999/xlink" width="170" zoomAndPan="magnify" viewBox="0 0 127.5 32.999998" height="44" preserveAspectRatio="xMidYMid meet" version="1.2"><defs><clipPath id="e550652aa9"><path d="M 0 0.0625 L 44.824219 0.0625 L 44.824219 32.933594 L 0 32.933594 Z M 0 0.0625 "/></clipPath></defs><g id="9d93203f75"><g clip-rule="nonzero" clip-path="url(#e550652aa9)"><path style=" stroke:none;fill-rule:nonzero;fill:#ef3139;fill-opacity:1;" d="M 18.027344 10.671875 C 18.570312 10.890625 19.105469 11.050781 19.582031 11.3125 C 20.644531 11.894531 20.765625 12.984375 19.863281 13.789062 C 19.554688 14.0625 19.128906 14.210938 19.363281 14.761719 C 19.644531 15.421875 19.277344 15.898438 18.875 16.375 C 18.21875 17.152344 17.933594 18.0625 18.023438 19.074219 C 18.113281 20.125 18.582031 20.664062 19.742188 20.492188 C 21.667969 20.207031 22.824219 21.203125 22.789062 23.1875 C 22.769531 24.445312 22.765625 25.664062 23.203125 26.863281 C 23.34375 27.253906 23.34375 27.707031 23.90625 27.742188 C 24.371094 27.769531 24.820312 27.566406 24.917969 27.164062 C 25.363281 25.402344 27.195312 24.1875 26.894531 22.128906 C 26.839844 21.746094 27.054688 21.378906 27.355469 21.164062 C 28.546875 20.308594 28.109375 19.71875 27.089844 19.164062 C 26.398438 18.785156 26.105469 18.097656 25.800781 17.414062 C 25.203125 16.085938 24.410156 15.011719 22.71875 15.144531 C 22.5 15.164062 22.269531 15.054688 22.042969 15.015625 C 21.496094 14.917969 21.203125 14.609375 21.351562 14.046875 C 21.480469 13.546875 21.964844 13.359375 22.335938 13.5625 C 24.117188 14.554688 26.527344 14.613281 27.367188 17.027344 C 27.695312 17.972656 28.4375 18.21875 29.359375 17.667969 C 29.300781 17.546875 29.273438 17.460938 29.222656 17.394531 C 28.871094 16.972656 27.671875 17.007812 28.273438 16.097656 C 28.773438 15.34375 29.511719 15.867188 30.097656 16.257812 C 31.347656 17.085938 32.871094 17.667969 32.867188 19.941406 C 33.71875 18.644531 33.796875 17.15625 35.214844 17.277344 C 36.824219 17.414062 36.90625 18.996094 37.503906 20.339844 C 37.847656 19.683594 38.269531 19.261719 37.941406 18.625 C 37.414062 17.613281 37.917969 17.113281 38.835938 16.945312 C 40.171875 16.699219 40.027344 16.113281 39.335938 15.28125 C 38.335938 14.074219 38.347656 14.0625 39.875 13.714844 C 40.566406 13.558594 40.679688 12.722656 40.128906 11.941406 C 39.742188 11.394531 38.4375 11.027344 39.46875 10.144531 C 40.324219 9.414062 41.296875 9.84375 42.058594 10.59375 C 42.191406 10.722656 42.28125 10.890625 42.363281 11.003906 C 42.550781 10.945312 42.679688 10.933594 42.683594 10.898438 C 42.765625 10.390625 43.621094 10.199219 43.378906 9.691406 C 43.136719 9.175781 42.457031 9.5 41.976562 9.410156 C 41.023438 9.234375 40.070312 9.070312 39.113281 8.925781 C 38.179688 8.789062 37.300781 8.457031 36.304688 8.988281 C 35.558594 9.390625 34.699219 8.792969 33.929688 8.539062 C 33.148438 8.285156 32.8125 8.515625 32.699219 9.285156 C 32.601562 9.964844 32.507812 10.65625 32.316406 11.3125 C 32.179688 11.78125 31.773438 12.101562 31.261719 12.054688 C 30.699219 12.007812 30.757812 11.515625 30.707031 11.101562 C 30.378906 8.632812 30.367188 8.613281 28.148438 9.652344 C 27.425781 9.988281 26.726562 10.296875 25.910156 10.203125 C 25.136719 10.113281 24.460938 10.304688 23.882812 10.851562 C 23.6875 11.035156 23.417969 11.152344 23.164062 11.257812 C 22.613281 11.480469 22.078125 11.464844 21.613281 11.046875 C 21.339844 10.804688 21.28125 10.476562 21.390625 10.15625 C 21.605469 9.554688 22.121094 9.351562 22.707031 9.328125 C 23.679688 9.289062 24.648438 9.621094 25.519531 8.683594 C 26.242188 7.898438 26.457031 7.464844 25.535156 6.71875 C 25.113281 6.375 24.152344 5.976562 24.597656 5.292969 C 25.105469 4.515625 25.890625 5.175781 26.417969 5.527344 C 27.425781 6.199219 28.082031 5.433594 28.792969 5.039062 C 29.300781 4.757812 28.910156 4.445312 28.617188 4.195312 C 27.667969 3.390625 26.71875 2.59375 25.792969 1.761719 C 25.472656 1.476562 24.871094 1.199219 25.152344 0.679688 C 25.445312 0.144531 26.082031 0.0703125 26.636719 0.292969 C 27.875 0.785156 29.148438 1.234375 30.304688 1.882812 C 31.777344 2.710938 33.089844 3.109375 34.636719 1.972656 C 35.277344 1.503906 36.503906 0.699219 37.054688 1.734375 C 37.597656 2.761719 36.351562 3.285156 35.511719 3.59375 C 34.023438 4.136719 33.367188 5.191406 33.183594 6.691406 C 33.101562 7.371094 33.28125 7.734375 33.964844 7.882812 C 34.980469 8.109375 35.933594 8.542969 37.042969 8.050781 C 37.761719 7.734375 38.585938 8.128906 39.351562 8.277344 C 40.480469 8.496094 41.609375 8.699219 42.765625 8.757812 C 44.203125 8.828125 44.484375 9.417969 43.761719 10.671875 C 43.675781 10.820312 43.546875 11.007812 43.582031 11.148438 C 43.683594 11.582031 43.773438 12.003906 43.238281 12.179688 C 42.632812 12.375 42.3125 11.964844 42.003906 11.53125 C 41.527344 10.855469 40.945312 10.367188 39.898438 10.675781 C 40.765625 11.535156 41.40625 12.445312 41.101562 13.691406 C 40.933594 14.386719 40.308594 14.359375 39.792969 14.480469 C 39.703125 14.871094 40.011719 15.066406 40.164062 15.324219 C 40.875 16.539062 40.714844 17.082031 39.390625 17.46875 C 38.714844 17.667969 38.210938 17.800781 38.6875 18.636719 C 38.992188 19.167969 38.59375 19.597656 38.445312 20.070312 C 38.238281 20.730469 38.039062 21.414062 38.671875 21.980469 C 39.183594 22.4375 39.640625 22.949219 40.402344 22.253906 C 40.707031 21.976562 41.0625 22.335938 41.28125 22.671875 C 42.324219 24.265625 42.214844 25.882812 40.972656 27.308594 C 40.699219 27.621094 40.453125 27.957031 40.171875 28.261719 C 39.800781 28.660156 39.4375 29.160156 38.78125 28.902344 C 38.140625 28.648438 38.546875 28.125 38.511719 27.707031 C 38.414062 26.5625 37.679688 26.566406 36.8125 26.808594 C 36.113281 27.007812 35.351562 27.878906 34.699219 26.988281 C 34.042969 26.082031 34.765625 25.136719 35.054688 24.25 C 35.226562 23.726562 35.824219 23.65625 36.285156 23.449219 C 37.523438 22.890625 37.65625 22.328125 37.039062 21.113281 C 36.710938 20.464844 36.539062 19.734375 36.300781 19.039062 C 36.105469 18.484375 35.800781 18.007812 35.15625 18 C 34.535156 17.988281 34.324219 18.496094 34.164062 18.992188 C 33.976562 19.566406 33.839844 20.277344 33.089844 20.234375 C 32.335938 20.195312 32.128906 19.488281 31.933594 18.855469 C 31.5 17.472656 31.199219 17.386719 30.078125 18.1875 C 29.304688 18.742188 28.421875 18.613281 27.515625 18.410156 C 27.597656 18.894531 28.042969 18.992188 28.320312 19.234375 C 29.027344 19.84375 29.136719 20.476562 28.375 21.074219 C 27.714844 21.589844 27.515625 22.214844 27.601562 23.011719 C 27.660156 23.582031 27.453125 24.113281 27.082031 24.546875 C 26.5 25.226562 26.160156 26.019531 25.863281 26.855469 C 25.535156 27.773438 24.960938 28.511719 23.871094 28.480469 C 22.757812 28.449219 22.722656 27.492188 22.449219 26.714844 C 22.058594 25.597656 22.082031 24.460938 22.097656 23.300781 C 22.117188 21.457031 21.433594 20.871094 19.632812 21.226562 C 18.621094 21.425781 18.03125 21.011719 17.667969 20.148438 C 17.238281 19.121094 17.316406 18.089844 17.722656 17.0625 C 18.089844 16.132812 19.066406 15.421875 18.632812 14.195312 C 18.515625 13.875 18.984375 13.582031 19.289062 13.375 C 20.234375 12.742188 19.851562 12.164062 19.109375 11.847656 C 17.300781 11.070312 15.445312 10.402344 13.601562 9.707031 C 13.449219 9.648438 13.257812 9.695312 12.953125 9.695312 C 13.261719 10.148438 13.535156 10.460938 13.714844 10.820312 C 14.171875 11.726562 13.921875 12.191406 12.96875 12.75 C 11.515625 13.605469 9.625 14.046875 9.066406 16.050781 C 8.839844 16.875 8.128906 16.769531 7.457031 16.570312 C 7.160156 16.480469 6.765625 16.367188 6.640625 16.789062 C 6.535156 17.132812 6.941406 17.1875 7.136719 17.351562 C 7.421875 17.589844 7.777344 17.765625 7.988281 18.050781 C 8.683594 18.992188 9.390625 19.628906 10.71875 19.128906 C 11.449219 18.851562 12.152344 19.378906 12.679688 19.925781 C 13.589844 20.871094 14.601562 21.59375 15.878906 22.011719 C 16.960938 22.359375 17.34375 23.105469 16.535156 24.132812 C 16.421875 24.277344 16.25 24.449219 16.257812 24.601562 C 16.367188 27.042969 14.296875 28.136719 13.074219 29.742188 C 12.679688 30.261719 12.652344 30.71875 12.820312 31.28125 C 12.964844 31.761719 13.210938 32.382812 12.617188 32.632812 C 11.90625 32.933594 11.695312 32.1875 11.460938 31.742188 C 10.660156 30.238281 10.417969 28.589844 10.507812 26.914062 C 10.5625 25.882812 10.304688 25.1875 9.335938 24.664062 C 8.050781 23.972656 7.777344 22.742188 8.207031 21.4375 C 8.5625 20.355469 8.230469 19.871094 7.210938 19.496094 C 6.046875 19.066406 4.984375 18.40625 4 17.617188 C 2.847656 16.695312 2.515625 15.566406 2.867188 14.175781 C 2.933594 13.910156 2.984375 13.636719 3.050781 13.371094 C 3.6875 10.824219 3.6875 10.820312 1.175781 11.078125 C 0.742188 11.125 0.214844 11.152344 0.128906 10.671875 C 0 9.945312 0.59375 9.4375 1.011719 8.929688 C 1.1875 8.710938 1.582031 8.636719 1.894531 8.574219 C 3.847656 8.199219 5.828125 8.671875 7.789062 8.371094 C 8.050781 8.332031 8.378906 8.457031 8.316406 8.832031 C 8.261719 9.128906 7.984375 9.0625 7.757812 9.058594 C 6.246094 9.035156 4.753906 9.375 3.222656 9.144531 C 2.488281 9.035156 1.542969 9.015625 1.253906 10.132812 C 4.308594 10.003906 4.539062 10.316406 3.742188 13.347656 C 3.0625 15.929688 3.410156 16.691406 5.941406 18.121094 C 6.457031 18.410156 6.996094 18.652344 7.757812 19.039062 C 7.445312 18.257812 6.96875 18.027344 6.523438 17.769531 C 6.03125 17.488281 5.722656 17.082031 5.9375 16.519531 C 6.15625 15.945312 6.652344 15.578125 7.253906 15.804688 C 8.1875 16.152344 8.515625 15.757812 8.652344 14.921875 C 8.683594 14.75 8.765625 14.503906 8.894531 14.441406 C 10.21875 13.832031 11.199219 12.722656 12.46875 12.039062 C 12.730469 11.898438 13.203125 12.046875 13.21875 11.601562 C 13.230469 11.050781 12.851562 10.675781 12.421875 10.382812 C 12.117188 10.175781 11.8125 10.203125 11.542969 10.46875 C 11.511719 10.5 11.472656 10.53125 11.449219 10.566406 C 11.0625 11.125 10.644531 11.632812 9.871094 11.222656 C 9.511719 11.03125 9.355469 10.695312 9.40625 10.292969 C 9.503906 9.46875 10.101562 9.144531 10.804688 8.957031 C 12.207031 8.582031 13.550781 8.871094 14.851562 9.410156 C 15.394531 9.636719 15.855469 9.921875 16.132812 9.082031 C 16.289062 8.605469 16.78125 8.417969 17.21875 8.304688 C 17.894531 8.132812 18.703125 7.972656 19.117188 8.664062 C 19.589844 9.445312 18.898438 9.910156 18.339844 10.335938 C 18.230469 10.417969 18.152344 10.535156 18.027344 10.671875 Z M 11.726562 30.527344 C 12.753906 29.25 13.644531 27.847656 14.824219 26.757812 C 15.9375 25.726562 15.257812 24.199219 16.175781 23.175781 C 16.351562 22.980469 15.859375 22.667969 15.546875 22.597656 C 14.261719 22.308594 13.371094 21.453125 12.464844 20.585938 C 11.457031 19.617188 9.890625 19.484375 9.234375 20.261719 C 8.359375 21.296875 8.621094 23.5 9.804688 24.164062 C 10.882812 24.765625 11.253906 25.59375 11.199219 26.773438 C 11.136719 28.058594 11.195312 29.351562 11.726562 30.527344 Z M 39.457031 28.011719 C 39.9375 27.476562 40.367188 26.949219 40.851562 26.480469 C 41.625 25.726562 41.296875 24.882812 41.125 24.03125 C 40.949219 23.171875 40.390625 23.324219 39.789062 23.460938 C 39.644531 23.492188 39.417969 23.375 39.292969 23.257812 C 38.550781 22.574219 37.960938 22.671875 37.40625 23.507812 C 37.242188 23.753906 36.914062 23.988281 36.625 24.042969 C 35.648438 24.226562 35.425781 24.921875 35.308594 25.742188 C 35.269531 26.003906 35.082031 26.300781 35.332031 26.515625 C 35.585938 26.734375 35.835938 26.496094 36.078125 26.398438 C 38.054688 25.589844 38.746094 25.90625 39.457031 28.011719 Z M 29.628906 6.726562 C 29.144531 7.210938 28.003906 7.027344 28.015625 8.1875 C 28.019531 8.441406 27.972656 8.894531 28.339844 8.75 C 29.042969 8.46875 29.980469 8.386719 30.152344 7.394531 C 30.199219 7.109375 30.21875 6.71875 29.628906 6.726562 Z M 18.671875 8.925781 C 17.828125 8.941406 17.171875 8.757812 16.757812 9.425781 C 16.621094 9.648438 16.730469 9.894531 16.996094 9.9375 C 17.691406 10.046875 18.191406 9.757812 18.671875 8.925781 Z M 18.671875 8.925781 "/></g><g style="fill:#ef3139;fill-opacity:1;"><g transform="translate(48.377465, 22.850095)"><path style="stroke:none" d="M 6.984375 0.1875 C 5.804688 0.1875 4.769531 -0.0546875 3.875 -0.546875 C 2.976562 -1.035156 2.273438 -1.769531 1.765625 -2.75 C 1.253906 -3.738281 1 -4.953125 1 -6.390625 C 1 -7.835938 1.253906 -9.050781 1.765625 -10.03125 C 2.273438 -11.007812 2.976562 -11.742188 3.875 -12.234375 C 4.769531 -12.734375 5.804688 -12.984375 6.984375 -12.984375 C 8.222656 -12.984375 9.269531 -12.738281 10.125 -12.25 C 10.988281 -11.769531 11.601562 -11.039062 11.96875 -10.0625 L 10.125 -8.921875 L 9.90625 -8.9375 C 9.632812 -9.601562 9.257812 -10.078125 8.78125 -10.359375 C 8.3125 -10.648438 7.710938 -10.796875 6.984375 -10.796875 C 5.929688 -10.796875 5.101562 -10.441406 4.5 -9.734375 C 3.90625 -9.035156 3.609375 -7.921875 3.609375 -6.390625 C 3.609375 -4.867188 3.90625 -3.753906 4.5 -3.046875 C 5.101562 -2.347656 5.929688 -2 6.984375 -2 C 8.648438 -2 9.671875 -2.804688 10.046875 -4.421875 L 10.265625 -4.421875 L 12.125 -3.453125 C 11.78125 -2.242188 11.179688 -1.332031 10.328125 -0.71875 C 9.484375 -0.113281 8.367188 0.1875 6.984375 0.1875 Z M 6.984375 0.1875 "/></g><g transform="translate(60.931748, 22.850095)"><path style="stroke:none" d="M 2.59375 -10.8125 C 2.15625 -10.8125 1.800781 -10.941406 1.53125 -11.203125 C 1.257812 -11.472656 1.125 -11.816406 1.125 -12.234375 C 1.125 -12.648438 1.257812 -12.988281 1.53125 -13.25 C 1.800781 -13.519531 2.15625 -13.65625 2.59375 -13.65625 C 2.882812 -13.65625 3.144531 -13.59375 3.375 -13.46875 C 3.601562 -13.34375 3.78125 -13.171875 3.90625 -12.953125 C 4.03125 -12.742188 4.09375 -12.503906 4.09375 -12.234375 C 4.09375 -11.960938 4.03125 -11.71875 3.90625 -11.5 C 3.78125 -11.28125 3.601562 -11.109375 3.375 -10.984375 C 3.144531 -10.867188 2.882812 -10.8125 2.59375 -10.8125 Z M 1.390625 0 L 1.390625 -9.65625 L 3.8125 -9.65625 L 3.8125 0 Z M 1.390625 0 "/></g><g transform="translate(66.132057, 22.850095)"><path style="stroke:none" d="M 2.140625 4.09375 C 1.722656 4.09375 1.34375 4.0625 1 4 C 0.664062 3.9375 0.394531 3.851562 0.1875 3.75 L 0.578125 1.78125 L 0.734375 1.734375 C 0.878906 1.804688 1.054688 1.863281 1.265625 1.90625 C 1.484375 1.957031 1.707031 1.984375 1.9375 1.984375 C 2.332031 1.984375 2.660156 1.929688 2.921875 1.828125 C 3.179688 1.734375 3.398438 1.566406 3.578125 1.328125 C 3.753906 1.085938 3.914062 0.757812 4.0625 0.34375 L 0.203125 -9.65625 L 2.75 -9.65625 L 5.140625 -2.9375 L 5.359375 -2.9375 L 7.6875 -9.65625 L 10.15625 -9.65625 L 6.28125 0.609375 C 5.96875 1.429688 5.625 2.09375 5.25 2.59375 C 4.882812 3.101562 4.445312 3.476562 3.9375 3.71875 C 3.4375 3.96875 2.835938 4.09375 2.140625 4.09375 Z M 2.140625 4.09375 "/></g></g><g style="fill:#ef3139;fill-opacity:1;"><g transform="translate(76.313808, 22.850095)"><path style="stroke:none" d="M 3.765625 0.1875 C 3.140625 0.1875 2.597656 0.0703125 2.140625 -0.15625 C 1.691406 -0.382812 1.34375 -0.71875 1.09375 -1.15625 C 0.851562 -1.59375 0.734375 -2.125 0.734375 -2.75 C 0.734375 -3.320312 0.851562 -3.800781 1.09375 -4.1875 C 1.34375 -4.570312 1.722656 -4.890625 2.234375 -5.140625 C 2.753906 -5.390625 3.425781 -5.582031 4.25 -5.71875 C 4.832031 -5.8125 5.269531 -5.910156 5.5625 -6.015625 C 5.863281 -6.128906 6.066406 -6.253906 6.171875 -6.390625 C 6.273438 -6.535156 6.328125 -6.71875 6.328125 -6.9375 C 6.328125 -7.238281 6.21875 -7.472656 6 -7.640625 C 5.789062 -7.804688 5.4375 -7.890625 4.9375 -7.890625 C 4.394531 -7.890625 3.878906 -7.769531 3.390625 -7.53125 C 2.910156 -7.289062 2.492188 -6.972656 2.140625 -6.578125 L 1.96875 -6.578125 L 0.953125 -8.109375 C 1.441406 -8.648438 2.039062 -9.070312 2.75 -9.375 C 3.457031 -9.6875 4.226562 -9.84375 5.0625 -9.84375 C 6.332031 -9.84375 7.253906 -9.566406 7.828125 -9.015625 C 8.398438 -8.472656 8.6875 -7.707031 8.6875 -6.71875 L 8.6875 -2.515625 C 8.6875 -2.085938 8.878906 -1.875 9.265625 -1.875 C 9.410156 -1.875 9.550781 -1.898438 9.6875 -1.953125 L 9.8125 -1.921875 L 9.984375 -0.234375 C 9.847656 -0.140625 9.660156 -0.0664062 9.421875 -0.015625 C 9.179688 0.0351562 8.921875 0.0625 8.640625 0.0625 C 8.054688 0.0625 7.601562 -0.046875 7.28125 -0.265625 C 6.957031 -0.484375 6.726562 -0.828125 6.59375 -1.296875 L 6.40625 -1.328125 C 5.9375 -0.316406 5.054688 0.1875 3.765625 0.1875 Z M 4.53125 -1.625 C 5.09375 -1.625 5.539062 -1.8125 5.875 -2.1875 C 6.207031 -2.5625 6.375 -3.085938 6.375 -3.765625 L 6.375 -4.75 L 6.21875 -4.78125 C 6.070312 -4.664062 5.878906 -4.566406 5.640625 -4.484375 C 5.398438 -4.398438 5.0625 -4.320312 4.625 -4.25 C 4.09375 -4.164062 3.710938 -4.015625 3.484375 -3.796875 C 3.253906 -3.585938 3.140625 -3.285156 3.140625 -2.890625 C 3.140625 -2.484375 3.257812 -2.171875 3.5 -1.953125 C 3.75 -1.734375 4.09375 -1.625 4.53125 -1.625 Z M 4.53125 -1.625 "/></g></g><g style="fill:#000000;fill-opacity:1;"><g transform="translate(86.501396, 22.850095)"><path style="stroke:none" d="M 10.25 -12.796875 L 10.25 -10.671875 L 6.5625 -10.671875 L 6.5625 0 L 4.046875 0 L 4.046875 -10.671875 L 0.34375 -10.671875 L 0.34375 -12.796875 Z M 10.25 -12.796875 "/></g></g><g style="fill:#000000;fill-opacity:1;"><g transform="translate(96.236655, 22.850095)"><path style="stroke:none" d="M 1.390625 0 L 1.390625 -9.65625 L 3.75 -9.65625 L 3.75 -8.21875 L 3.921875 -8.1875 C 4.160156 -8.71875 4.46875 -9.109375 4.84375 -9.359375 C 5.226562 -9.609375 5.691406 -9.734375 6.234375 -9.734375 C 6.773438 -9.734375 7.191406 -9.640625 7.484375 -9.453125 L 7.078125 -7.375 L 6.890625 -7.328125 C 6.734375 -7.390625 6.582031 -7.4375 6.4375 -7.46875 C 6.289062 -7.5 6.109375 -7.515625 5.890625 -7.515625 C 5.222656 -7.515625 4.707031 -7.273438 4.34375 -6.796875 C 3.988281 -6.328125 3.8125 -5.566406 3.8125 -4.515625 L 3.8125 0 Z M 1.390625 0 "/></g><g transform="translate(103.809496, 22.850095)"><path style="stroke:none" d="M 2.59375 -10.8125 C 2.15625 -10.8125 1.800781 -10.941406 1.53125 -11.203125 C 1.257812 -11.472656 1.125 -11.816406 1.125 -12.234375 C 1.125 -12.648438 1.257812 -12.988281 1.53125 -13.25 C 1.800781 -13.519531 2.15625 -13.65625 2.59375 -13.65625 C 2.882812 -13.65625 3.144531 -13.59375 3.375 -13.46875 C 3.601562 -13.34375 3.78125 -13.171875 3.90625 -12.953125 C 4.03125 -12.742188 4.09375 -12.503906 4.09375 -12.234375 C 4.09375 -11.960938 4.03125 -11.71875 3.90625 -11.5 C 3.78125 -11.28125 3.601562 -11.109375 3.375 -10.984375 C 3.144531 -10.867188 2.882812 -10.8125 2.59375 -10.8125 Z M 1.390625 0 L 1.390625 -9.65625 L 3.8125 -9.65625 L 3.8125 0 Z M 1.390625 0 "/></g><g transform="translate(109.009806, 22.850095)"><path style="stroke:none" d="M 1.390625 3.90625 L 1.390625 -9.65625 L 3.8125 -9.65625 L 3.8125 -8.390625 L 4 -8.359375 C 4.28125 -8.847656 4.660156 -9.21875 5.140625 -9.46875 C 5.617188 -9.71875 6.179688 -9.84375 6.828125 -9.84375 C 7.597656 -9.84375 8.273438 -9.65625 8.859375 -9.28125 C 9.441406 -8.914062 9.894531 -8.359375 10.21875 -7.609375 C 10.539062 -6.859375 10.703125 -5.929688 10.703125 -4.828125 C 10.703125 -3.722656 10.53125 -2.796875 10.1875 -2.046875 C 9.84375 -1.296875 9.367188 -0.734375 8.765625 -0.359375 C 8.160156 0.00390625 7.460938 0.1875 6.671875 0.1875 C 6.066406 0.1875 5.546875 0.0859375 5.109375 -0.109375 C 4.671875 -0.316406 4.300781 -0.632812 4 -1.0625 L 3.8125 -1.03125 L 3.8125 3.90625 Z M 6 -1.875 C 6.71875 -1.875 7.265625 -2.109375 7.640625 -2.578125 C 8.015625 -3.054688 8.203125 -3.804688 8.203125 -4.828125 C 8.203125 -5.847656 8.015625 -6.59375 7.640625 -7.0625 C 7.265625 -7.539062 6.71875 -7.78125 6 -7.78125 C 5.320312 -7.78125 4.785156 -7.535156 4.390625 -7.046875 C 3.992188 -6.554688 3.796875 -5.816406 3.796875 -4.828125 C 3.796875 -3.835938 3.992188 -3.097656 4.390625 -2.609375 C 4.785156 -2.117188 5.320312 -1.875 6 -1.875 Z M 6 -1.875 "/></g></g></g></svg>